<?xml version="1.0" encoding="utf-8"?>
<!-- Generator: Adobe Illustrator 16.0.0, SVG Export Plug-In . SVG Version: 6.00 Build 0)  -->
<!DOCTYPE svg PUBLIC "-//W3C//DTD SVG 1.1//EN" "http://www.w3.org/Graphics/SVG/1.1/DTD/svg11.dtd">
<svg version="1.1" id="Layer_1" xmlns="http://www.w3.org/2000/svg" xmlns:xlink="http://www.w3.org/1999/xlink" x="0px" y="0px"
	 width="352px" height="202.461px" viewBox="37.5 0 352 202.461" enable-background="new 37.5 0 352 202.461" xml:space="preserve">
<polygon fill="#FFFFFF" points="41.501,0.013 369.165,0.001 384.502,152.811 61.688,202.461 "/>
<g>
	<polygon fill="#E01F26" points="147.906,156.568 147.906,95.103 154.748,95.191 184.646,138.418 184.646,95.191 193.413,95.191 
		193.413,156.568 186.399,156.568 156.764,113.691 156.764,156.568 	"/>
	<polygon fill="#1D1D1B" points="206.214,147.713 235.063,147.713 235.063,156.568 197.357,156.568 197.357,95.277 206.214,95.277 	
		"/>
	<path fill="#1D1D1B" d="M267.068,111.063c-1.229-5.525-7.188-7.893-12.539-7.805c-4.12,0.086-8.684,1.49-11.137,4.646
		c-1.229,1.578-1.664,3.597-1.49,5.7c0.438,6.312,7.365,7.104,13.94,7.716c8.418,1.054,18.853,3.245,21.218,13.063
		c0.265,1.313,0.44,2.807,0.44,4.033c0,11.838-11.75,18.678-22.799,18.678c-9.473,0-20.957-5.61-22.098-16.571l-0.086-1.666
		l8.941-0.176l0.088,1.313v-0.351c0.613,5.698,7.541,8.681,13.24,8.681c6.575,0,13.768-3.683,13.768-9.996
		c0-0.613-0.086-1.313-0.264-2.104c-1.054-4.646-7.365-5.438-13.504-6.05c-9.56-0.965-20.779-3.068-21.744-15.87v0.089
		c-0.354-4.123,0.699-8.244,3.332-11.662c4.119-5.352,11.486-8.154,18.586-8.154c9.473,0,19.291,4.909,20.869,16.133
		L267.068,111.063z"/>
	<path fill="#E01F26" d="M157.54,50.332c0,2.692-2.333,5.474-5.652,5.474c-2.963,0-5.386-2.781-5.386-5.474
		c0-3.32,2.423-5.563,5.386-5.563C155.207,44.769,157.54,47.012,157.54,50.332"/>
	<path fill="#1D1D1B" d="M157.54,67.426c0,2.693-2.333,5.474-5.652,5.474c-2.963,0-5.386-2.78-5.386-5.474
		c0-3.319,2.423-5.563,5.386-5.563C155.207,61.863,157.54,64.106,157.54,67.426"/>
	<path fill="#1D1D1B" d="M176.024,67.426c0,2.693-2.333,5.474-5.653,5.474c-2.958,0-5.383-2.78-5.383-5.474
		c0-3.319,2.425-5.563,5.383-5.563C173.691,61.863,176.024,64.106,176.024,67.426"/>
	<path fill="#1D1D1B" d="M157.54,84.522c0,2.689-2.333,5.473-5.652,5.473c-2.963,0-5.386-2.783-5.386-5.473
		c0-3.322,2.423-5.564,5.386-5.564C155.207,78.958,157.54,81.2,157.54,84.522"/>
	<path fill="#1D1D1B" d="M176.024,84.522c0,2.689-2.333,5.473-5.653,5.473c-2.958,0-5.383-2.783-5.383-5.473
		c0-3.322,2.425-5.564,5.383-5.564C173.691,78.958,176.024,81.2,176.024,84.522"/>
	<path fill="#1D1D1B" d="M194.514,84.522c0,2.689-2.334,5.473-5.654,5.473c-2.962,0-5.386-2.783-5.386-5.473
		c0-3.322,2.424-5.564,5.386-5.564C192.18,78.958,194.514,81.2,194.514,84.522"/>
</g>
</svg>
